<svg width="44" height="44" viewBox="0 0 44 44" fill="none" xmlns="http://www.w3.org/2000/svg">
<path fill-rule="evenodd" clip-rule="evenodd" d="M13.153 1.54449C14.6782 1.32613 16.2316 1.40683 17.8131 1.78583C19.3745 2.1424 20.9189 2.79098 22.4451 3.73218C23.9766 4.63482 25.3986 5.8175 26.7116 7.27902C28.2265 8.96535 29.3565 10.7349 30.1008 12.5883C30.8249 14.4193 31.1847 16.2684 31.1799 18.1347C31.1649 19.2741 31.018 20.3453 30.7401 21.3479C30.5395 22.4259 29.8081 24.2397 29.1745 25.8104C28.5731 27.3015 28.5003 29.1872 29.5002 31.1871L33.0565 38.1183C33.2623 38.4809 33.4507 38.8018 33.6216 39.0811C33.7723 39.338 33.9388 39.568 34.1205 39.7703C34.2475 39.9116 34.3752 40.0262 34.5033 40.1139C34.6144 40.19 34.7367 40.2606 34.8595 40.3305C35.1227 40.4805 35.3883 40.6318 35.5517 40.8507C35.922 41.3467 35.7486 41.9871 35.1968 42.2988C34.7799 42.5342 34.3098 42.8159 33.7875 43.1435C33.5074 43.3192 33.2458 43.4875 33.0028 43.6478C32.2977 44.1129 31.204 43.9251 30.764 43.2283C30.6151 42.9925 30.5763 42.7236 30.5481 42.4614C30.5138 42.1427 30.3806 41.7768 30.1486 41.365L24.9821 32.7742C24.8368 32.4787 24.6555 32.188 24.4388 31.9022C24.2018 31.5939 23.9828 31.3267 23.7809 31.1019C23.0004 30.1873 21.8777 30.3406 20.0768 29.7324C18.7596 29.2875 17.4143 28.8326 16.6456 28.5264C15.1076 27.9139 14.1058 27.5849 12.8644 26.8276C11.3383 25.8864 9.89873 24.6625 8.54535 23.156C6.90903 21.3346 5.71378 19.4469 4.96007 17.4938C4.20648 15.5409 3.8625 13.665 3.92793 11.8662C3.99878 10.0289 4.45566 8.35384 5.29833 6.84088C6.16671 5.31178 7.38218 4.05715 8.94424 3.07736C10.2246 2.27431 11.6277 1.76294 13.153 1.54449ZM15.2965 2.99492C13.3849 2.47135 11.6732 2.68325 10.1624 3.63081C9.0869 4.3054 8.31226 5.24853 7.8388 6.45954C7.37075 7.63207 7.28887 8.96722 7.59274 10.4642C7.80783 11.5948 8.12419 12.7497 8.54268 13.9285C8.98683 15.0914 9.48269 16.2225 10.0293 17.3212C10.5757 18.4195 11.176 19.4665 11.8302 20.4621C12.49 21.4193 13.1637 22.2805 13.8505 23.045C15.8705 25.2935 17.831 26.7185 19.7318 27.3193C21.6583 27.9039 23.4289 27.6904 25.0422 26.6785C26.1945 25.9557 26.9357 24.9981 27.2664 23.8063C27.6024 22.5759 27.6048 21.0628 27.2728 19.2671C26.8722 17.1277 26.1219 14.9786 25.0234 12.8199C23.9504 10.6453 22.5963 8.64678 20.9601 6.82545C19.1218 4.7793 17.2338 3.5025 15.2965 2.99492Z" fill="#FBFDFF" fill-opacity="0.5"/>
</svg>
